<?xml version="1.0" encoding="utf-8"?>
<svg viewBox="426.351 340.274 223.263 394.072" xmlns="http://www.w3.org/2000/svg">
  <g transform="matrix(1, 0, 0, 1, 540, 540)" id="8188ed9d-148e-4387-af7c-4cb5a6a47ce2"/>
  <g transform="matrix(1, 0, 0, 1, 540, 540)" id="5b358250-4a95-4667-92b4-1251294bcc44"/>
  <g transform="matrix(1, 0, 0, 1, 512.950012, 716.5)">
    <path style="stroke: none; stroke-width: 1; stroke-dasharray: none; stroke-linecap: butt; stroke-dashoffset: 0; stroke-linejoin: miter; stroke-miterlimit: 4; fill: rgb(63,61,86); fill-rule: nonzero; opacity: 1;" vector-effect="non-scaling-stroke" transform=" translate(-619.4, -626.67)" d="M 598.87633 612.16592 C 612.1635168745432 620.7546731456682 627.5341535043672 625.5728790061238 643.3465500000001 626.1059200000001 C 643.0641833724508 626.7753630190363 642.7470173413681 627.4295888882449 642.3963500000001 628.0659200000001 C 640.5558448193242 631.4636068645543 637.9547573556143 634.3897956089929 634.7962600000001 636.6159200000001 C 627.1730250268776 641.9810256527078 617.1959891026651 642.6528761654072 608.9222718785877 638.3582663558716 C 600.6485546545102 634.0636565463359 595.4561047282475 625.5178334316387 595.4564100000001 616.1959200000001 L 595.4564100000001 612.1659200000001 Z" stroke-linecap="round"/>
  </g>
  <g transform="matrix(1, 0, 0, 1, 561.76001, 717.090027)">
    <path style="stroke: none; stroke-width: 1; stroke-dasharray: none; stroke-linecap: butt; stroke-dashoffset: 0; stroke-linejoin: miter; stroke-miterlimit: 4; fill: rgb(63,61,86); fill-rule: nonzero; opacity: 1;" vector-effect="non-scaling-stroke" transform=" translate(-668.21, -627.26)" d="M 692.14635 613.34591 L 692.14635 616.19591 C 692.1506552572174 627.6101246158852 684.4117425966207 637.5730869304226 673.351214737845 640.3924906471635 C 662.2906868790693 643.2118943639045 650.7267697489292 638.1693545419014 645.26647 628.1459100000001 C 644.9006015740214 627.4941448381329 644.5700476272007 626.8231760398642 644.27624 626.1359100000001 C 645.00624 626.1559100000001 645.72643 626.16591 646.45641 626.16591 C 662.5767774720908 626.1846301311908 678.3887509586388 621.7479970321422 692.14635 613.34591 Z" stroke-linecap="round"/>
  </g>
  <g transform="matrix(1, 0, 0, 1, 631.780029, 432.920013)">
    <path style="stroke: none; stroke-width: 1; stroke-dasharray: none; stroke-linecap: butt; stroke-dashoffset: 0; stroke-linejoin: miter; stroke-miterlimit: 4; fill: rgb(63,61,86); fill-rule: nonzero; opacity: 1;" vector-effect="non-scaling-stroke" transform=" translate(-738.24, -343.09)" d="M 725.78649 311.9659 C 725.03649 311.85589999999996 724.2762399999999 311.78589999999997 723.51649 311.73589999999996 C 732.1525247805042 331.6387886686491 732.7509588492818 354.1116020088336 725.18641 374.44589999999994 C 725.94667 374.35589999999996 726.69667 374.23589999999996 727.44667 374.0958999999999 C 742.5705216563636 371.1654294794542 753.3566245196384 357.7270317008675 752.9451343690067 342.3273816317454 C 752.5336442183749 326.92773156262336 741.0452772394907 314.0845242532651 725.78651 311.9658999999999 Z" stroke-linecap="round"/>
  </g>
  <g transform="matrix(2.55, 0, 0, 2.55, 539.940002, 627.219971)" id="c63f6800-c018-4226-b78e-a807a0d50293">
    <circle style="stroke: rgb(0,0,0); stroke-width: 0; stroke-dasharray: none; stroke-linecap: butt; stroke-dashoffset: 0; stroke-linejoin: miter; stroke-miterlimit: 4; fill: rgb(255,255,255); fill-rule: nonzero; opacity: 1;" vector-effect="non-scaling-stroke" cx="0" cy="0" r="35"/>
  </g>
  <g transform="matrix(1, 0, 0, 1, 448.220001, 432.929993)">
    <path style="stroke: none; stroke-width: 1; stroke-dasharray: none; stroke-linecap: butt; stroke-dashoffset: 0; stroke-linejoin: miter; stroke-miterlimit: 4; fill: rgb(63,61,86); fill-rule: nonzero; opacity: 1;" vector-effect="non-scaling-stroke" transform=" translate(-554.68, -343.09)" d="M 569.39635 311.73592 C 568.63659 311.78592000000003 567.87635 311.85592 567.12635 311.96592000000004 C 551.867561717858 314.08452036989115 540.3791684822045 326.9277368384218 539.9676803394258 342.3274045255794 C 539.5561921966472 357.7270722127371 550.3423251129061 371.1654770699865 565.4662 374.09592000000004 C 566.2162 374.23592 566.9662 374.35592 567.72645 374.44592000000006 C 560.1619011507182 354.1116220088337 560.7603352194958 331.63880866864923 569.39637 311.7359200000001 Z" stroke-linecap="round"/>
  </g>
  <g transform="matrix(1, 0, 0, 1, 539.98999, 435.01001)">
    <path style="stroke: none; stroke-width: 1; stroke-dasharray: none; stroke-linecap: butt; stroke-dashoffset: 0; stroke-linejoin: miter; stroke-miterlimit: 4; fill: rgb(63,61,86); fill-rule: evenodd; opacity: 1;" vector-effect="non-scaling-stroke" transform=" translate(-646.45, -345.17)" d="M 725.78649 311.9659 C 708.7190766960972 271.1940761689356 663.5236872714586 249.9997517192856 621.2634074070727 262.9499239645245 C 579.0031275426868 275.90009620976343 553.4416362645195 318.77704546875276 562.1475131072498 362.1111650951717 C 570.8533899499802 405.4452847215907 610.9912326188895 435.1231586347882 654.9740402772363 430.74699068937554 C 698.956847935583 426.3708227439629 732.4599343954641 389.3658796716719 732.45641 345.1658999999999 C 732.4523636379045 333.76685745576583 730.1852308433232 322.4820431281428 725.78649 311.9658999999999 Z M 725.18639 374.4459 C 710.0238032913678 415.20459969334917 666.254260294904 437.64597418150595 624.3088119064332 426.167516276389 C 582.3633635179624 414.68905837127204 556.1190923152453 373.0882601568721 563.8224934183756 330.28833903739223 C 571.5258945215061 287.48841791791233 610.6284021779447 257.6491471826022 653.943751254798 261.5164680562508 C 697.2591003316513 265.38378892989937 730.4569951921405 301.6782507645773 730.4563899999999 345.1658999999999 C 730.4532404865929 355.1614985783309 728.6686714970253 365.0765367941367 725.18639 374.44594 Z" stroke-linecap="round"/>
  </g>
  <g transform="matrix(1, 0, 0, 1, 540.02002, 628)">
    <path style="stroke: none; stroke-width: 1; stroke-dasharray: none; stroke-linecap: butt; stroke-dashoffset: 0; stroke-linejoin: miter; stroke-miterlimit: 4; fill: rgb(63,61,86); fill-rule: nonzero; opacity: 1;" vector-effect="non-scaling-stroke" transform=" translate(-646.48, -538.17)" d="M 646.45641 448.16592 C 597.5597452949019 448.1882141619671 557.6268439537378 487.2478704475183 556.5236039587909 536.1320926242697 C 555.420363963844 585.0163148010212 593.5504751713953 625.8377304791713 642.3963499999999 628.06592 C 643.34655 628.11592 644.30651 628.14592 645.26647 628.14592 C 645.66637 628.16592 646.05647 628.16592 646.45641 628.16592 C 696.1620374847714 628.16592 736.45641 587.8715474847714 736.45641 538.16592 C 736.45641 488.4602925152286 696.1620374847714 448.16592 646.45641 448.16592 Z M 692.14635 613.34592 C 678.3887509586388 621.7480070321421 662.5767774720908 626.1846401311908 646.45641 626.16592 C 645.72641 626.16592 645.00622 626.15592 644.27624 626.13592 Q 643.81115 626.13592 643.34655 626.1059200000001 C 599.6662209200394 624.5876488902243 563.7109884024309 591.2581174845171 558.8910926135839 547.8179874170199 C 554.0711968247368 504.3778573495226 581.8457026014441 463.97719846901714 624.1307927853096 452.9206418694793 C 666.4158829691752 441.8640852699415 710.4111380260982 463.49863961237264 727.4715064587587 503.73817396154607 C 744.5318748914191 543.9777083107194 729.4928915799646 590.6410278462723 692.1463500000001 613.34592 Z" stroke-linecap="round"/>
  </g>
  <g transform="matrix(1, 0, 0, 1, 583.5, 595.5)">
    <path style="stroke: none; stroke-width: 1; stroke-dasharray: none; stroke-linecap: butt; stroke-dashoffset: 0; stroke-linejoin: miter; stroke-miterlimit: 4; fill: rgb(63,61,86); fill-rule: nonzero; opacity: 1;" vector-effect="non-scaling-stroke" transform=" translate(-689.96, -505.67)" d="M 709.62316 515.99941 L 670.28966 515.99941 C 664.5826255376235 515.99941 659.95616 511.3729444623765 659.95616 505.66591 C 659.95616 499.9588755376235 664.5826255376235 495.33241 670.28966 495.33241 L 709.62316 495.33241 C 715.3301944623765 495.33241 719.9566599999999 499.9588755376235 719.95666 505.66591 C 719.95666 511.3729444623765 715.3301944623765 515.99941 709.62316 515.99941 Z" stroke-linecap="round"/>
  </g>
  <g transform="matrix(1, 0, 0, 1, 566.450012, 595.5)">
    <circle style="stroke: none; stroke-width: 1; stroke-dasharray: none; stroke-linecap: butt; stroke-dashoffset: 0; stroke-linejoin: miter; stroke-miterlimit: 4; fill: rgb(242,242,242); fill-rule: nonzero; opacity: 1;" vector-effect="non-scaling-stroke" cx="0" cy="0" r="5.24444"/>
  </g>
  <g transform="matrix(2.4, 0, 0, 2.4, 540.02002, 435)" id="c63f6800-c018-4226-b78e-a807a0d50293">
    <circle style="stroke: rgb(0,0,0); stroke-width: 0; stroke-dasharray: none; stroke-linecap: butt; stroke-dashoffset: 0; stroke-linejoin: miter; stroke-miterlimit: 4; fill: rgb(255,255,255); fill-rule: nonzero; opacity: 1;" vector-effect="non-scaling-stroke" cx="0" cy="0" r="35"/>
  </g>
  <g transform="matrix(1, 0, 0, 1, 583.5, 595.5)">
    <circle style="stroke: none; stroke-width: 1; stroke-dasharray: none; stroke-linecap: butt; stroke-dashoffset: 0; stroke-linejoin: miter; stroke-miterlimit: 4; fill: rgb(242,242,242); fill-rule: nonzero; opacity: 1;" vector-effect="non-scaling-stroke" cx="0" cy="0" r="5.24444"/>
  </g>
  <g transform="matrix(1, 0, 0, 1, 540, 433)">
    <path style="stroke: none; stroke-width: 1; stroke-dasharray: none; stroke-linecap: butt; stroke-dashoffset: 0; stroke-linejoin: miter; stroke-miterlimit: 4; fill: rgb(63,61,86); fill-rule: nonzero; opacity: 1;" vector-effect="non-scaling-stroke" transform=" translate(-646.46, -343.17)" d="M 690.45641 325.66592 L 602.45641 325.66592 C 592.7914268779612 325.66592 584.95641 333.5009368779611 584.95641 343.16592 C 584.95641 352.83090312203893 592.7914268779612 360.66592 602.45641 360.66592 L 690.45641 360.66592 C 700.1213931220389 360.66592 707.95641 352.83090312203893 707.95641 343.16592 C 707.95641 333.5009368779611 700.1213931220389 325.66592 690.45641 325.66592 Z" stroke-linecap="round"/>
  </g>
  <g transform="matrix(1, 0, 0, 1, 600.539978, 595.5)">
    <circle style="stroke: none; stroke-width: 1; stroke-dasharray: none; stroke-linecap: butt; stroke-dashoffset: 0; stroke-linejoin: miter; stroke-miterlimit: 4; fill: rgb(106,203,181); fill-rule: nonzero; opacity: 1;" vector-effect="non-scaling-stroke" cx="0" cy="0" r="5.24444"/>
  </g>
</svg>