<?xml version="1.0" encoding="utf-8"?>
<svg viewBox="138.246 14.467 286.636 566.737" xmlns="http://www.w3.org/2000/svg">
  <path d="M 232.54 576.306 L 212.708 576.854 C 209.696 577.008 206.715 576.173 204.222 574.475 C 202.069 572.873 201.081 570.707 201.514 568.532 L 205.416 548.919 C 206.152 545.219 210.686 542.422 216.196 542.27 L 227.149 541.968 C 232.659 541.815 237.341 544.358 238.279 548.012 L 243.258 567.379 C 243.811 569.527 242.944 571.744 240.882 573.462 C 238.487 575.296 235.557 576.294 232.54 576.306 Z" fill="#3f3d56" transform="matrix(0.999848, 0.017452, -0.017452, 0.999848, 9.796761, -3.796415)"/>
  <path d="M 353.163 577.85 L 333.331 578.398 C 330.318 578.553 327.338 577.717 324.845 576.019 C 322.691 574.417 321.703 572.251 322.136 570.077 L 326.039 550.464 C 326.774 546.764 331.309 543.967 336.819 543.814 L 347.771 543.512 C 353.282 543.36 357.963 545.902 358.902 549.556 L 363.881 568.924 C 364.433 571.072 363.566 573.288 361.505 575.007 C 359.109 576.84 356.179 577.839 353.163 577.85 Z" fill="#3f3d56" transform="matrix(0.999848, 0.017452, -0.017452, 0.999848, 9.84208, -5.901268)"/>
  <path d="M 166.412 410.238 C 163.35 408.918 162.865 404.779 165.539 402.787 C 166.254 402.254 167.116 401.955 168.007 401.93 L 393.475 395.704 C 395.866 395.638 397.857 397.522 397.924 399.912 L 397.924 399.913 C 397.987 402.302 396.104 404.292 393.715 404.361 L 393.714 404.361 L 168.246 410.587 C 167.617 410.606 166.991 410.487 166.412 410.238 Z" fill="#3f3d56" transform="matrix(0.999848, 0.017452, -0.017452, 0.999848, 7.078433, -4.840145)"/>
  <rect x="-356.219" y="-515.396" width="64.474" height="217.68" transform="matrix(0.999948, -0.010153, 0.010153, 0.999948, 547.768127, 847.469727)" fill="#e6e6e6"/>
  <polygon points="250.835 331.083 238.446 364.832 238.457 518.591 253.553 522.92 250.835 331.083" fill="#ccc" transform="matrix(0.999848, 0.017452, -0.017452, 0.999848, 7.489454, -4.228129)"/>
  <path d="M 218.857 277.65 C 206.799 277.993 197.6 298.86 197.821 307.002 L 198.228 321.744 L 241.887 320.538 L 241.48 305.797 C 241.252 297.654 230.915 277.327 218.857 277.65 Z" fill="#3f3d56" transform="matrix(0.999848, 0.017452, -0.017452, 0.999848, 5.263733, -3.791194)"/>
  <path d="M 185.954 425.828 C 181.264 425.952 177.358 422.256 177.223 417.566 L 176.56 393.575 C 176.38 387.034 183.348 382.75 189.102 385.864 C 191.773 387.31 193.47 390.07 193.554 393.105 L 194.216 417.096 C 194.34 421.787 190.645 425.693 185.954 425.828 Z" fill="#3f3d56" transform="matrix(0.999848, 0.017452, -0.017452, 0.999848, 7.101995, -3.17364)"/>
  <polyline points="201.643 336.582 201.338 320.727 205.496 320.624 205.801 336.428 209.57 566.774 205.411 566.889" fill="#3f3d56" transform="matrix(0.999848, 0.017452, -0.017452, 0.999848, 7.775686, -3.517981)"/>
  <path d="M 258.043 373.868 L 183.304 375.931 C 176.166 367.226 175.517 330.139 190.415 323.08 L 196.258 313.16 L 241.3 310.961 L 246.564 321.406 C 253.975 327.712 257.796 364.568 258.043 373.868 Z" fill="#e6e6e6" transform="matrix(0.999848, 0.017452, -0.017452, 0.999848, 6.027022, -3.756203)"/>
  <path d="M 229.876 356.114 L 210.976 356.636 C 207.328 356.736 204.228 352.005 204.064 346.089 C 203.901 340.174 206.736 335.278 210.383 335.178 L 229.283 334.656 C 232.93 334.555 236.031 339.287 236.194 345.202 C 236.358 351.117 233.523 356.013 229.876 356.114 Z" fill="#6c63ff" transform="matrix(0.999848, 0.017452, -0.017452, 0.999848, 6.065705, -3.78903)"/>
  <polygon points="190.452 462.215 151.493 489.735 144.687 551.785 190.135 536.6 190.452 462.215" fill="#e6e6e6" transform="matrix(0.999848, 0.017452, -0.017452, 0.999848, 8.873635, -2.847193)"/>
  <rect x="-480.63" y="-512.731" width="64.474" height="217.68" transform="matrix(0.999948, -0.010153, 0.010153, 0.999948, 796.583008, 843.048523)" fill="#e6e6e6"/>
  <polygon points="310.681 333.089 323.942 366.505 327.921 520.213 312.942 524.932 310.681 333.089" fill="#ccc" transform="matrix(0.999848, 0.017452, -0.017452, 0.999848, 7.535678, -5.507074)"/>
  <path d="M 342.037 277.169 C 329.98 277.511 320.78 298.378 321.001 306.521 L 321.408 321.262 L 365.067 320.057 L 364.66 305.315 C 364.432 297.172 354.095 276.845 342.037 277.169 Z" fill="#3f3d56" transform="matrix(0.999848, 0.017452, -0.017452, 0.999848, 5.274089, -5.940993)"/>
  <polyline points="351.867 344.17 351.562 328.315 355.72 328.211 356.025 344.016 359.794 574.362 355.635 574.477" fill="#3f3d56" transform="matrix(0.999848, 0.017452, -0.017452, 0.999848, 7.930981, -6.138521)"/>
  <path d="M 381.221 373.451 L 306.483 375.515 C 305.18 367.638 306.866 330.882 313.594 322.664 L 319.436 312.743 L 364.479 310.545 L 369.743 320.99 C 383.042 322.073 387.693 358.193 381.221 373.451 Z" fill="#e6e6e6" transform="matrix(0.999848, 0.017452, -0.017452, 0.999848, 6.039083, -5.970284)"/>
  <path d="M 353.117 358.944 L 334.217 359.466 C 330.57 359.567 327.449 354.092 327.26 347.264 C 327.072 340.436 329.886 334.798 333.533 334.697 L 352.433 334.175 C 356.08 334.074 359.202 339.549 359.39 346.377 C 359.579 353.205 356.764 358.843 353.117 358.944 Z" fill="#6c63ff" transform="matrix(0.999848, 0.017452, -0.017452, 0.999848, 6.104965, -5.938856)"/>
  <polygon points="375.611 450.275 413.274 479.543 417.24 541.84 372.534 524.596 375.611 450.275" fill="#e6e6e6" transform="matrix(0.999848, 0.017452, -0.017452, 0.999848, 8.717288, -6.815982)"/>
  <path d="M 277.287 17.7 C 265.23 18.042 256.03 38.909 256.252 47.052 L 256.659 61.793 L 300.318 60.588 L 299.911 45.846 C 299.682 37.704 289.345 17.376 277.287 17.7 Z" fill="#3f3d56" transform="matrix(0.999848, 0.017452, -0.017452, 0.999848, 0.736, -4.850516)"/>
  <path d="M 294.219 576.097 L 274.387 576.645 C 271.374 576.799 268.394 575.964 265.901 574.266 C 263.747 572.664 262.759 570.498 263.192 568.323 L 267.095 548.71 C 267.83 545.01 272.364 542.213 277.875 542.061 L 288.827 541.759 C 294.338 541.606 299.019 544.149 299.958 547.803 L 304.937 567.17 C 305.489 569.318 304.622 571.535 302.56 573.253 C 300.165 575.087 297.235 576.085 294.219 576.097 Z" fill="#3f3d56" transform="matrix(0.999848, 0.017452, -0.017452, 0.999848, 9.802507, -4.87285)"/>
  <rect x="-415.453" y="-291.401" width="64.474" height="440.016" transform="matrix(0.999948, -0.010153, 0.010153, 0.999948, 664.789551, 399.94696)" fill="#e6e6e6"/>
  <polyline points="279.499 324.605 279.194 308.75 283.352 308.647 283.657 324.451 287.426 554.797 283.267 554.912" fill="#3f3d56" transform="matrix(0.999848, 0.017452, -0.017452, 0.999848, 7.578521, -4.878541)"/>
  <path d="M 323.47 151.834 L 236.144 154.245 C 234.622 145.042 236.591 102.095 244.453 92.493 L 246.607 81.031 L 306.904 79.366 L 310.058 90.537 C 318.717 97.905 323.182 140.968 323.47 151.834 Z" fill="#e6e6e6" transform="matrix(0.999848, 0.017452, -0.017452, 0.999848, 2.081056, -4.861229)"/>
  <path d="M 309.729 80.692 L 247.507 82.41 C 245.21 82.474 243.314 81.268 243.271 79.717 C 243.265 79.494 243.298 79.271 243.368 79.059 L 253.033 49.283 C 253.447 48.008 255.094 47.072 257.017 47.019 L 298.281 45.88 C 300.204 45.826 301.901 46.67 302.384 47.921 L 313.678 77.117 C 314.255 78.61 312.921 80.164 310.698 80.588 C 310.379 80.649 310.055 80.683 309.729 80.692 Z" fill="#e6e6e6" transform="matrix(0.999848, 0.017452, -0.017452, 0.999848, 1.161873, -4.851308)"/>
  <path d="M 249.959 322.508 C 249.397 322.267 248.866 321.96 248.378 321.593 C 246.959 320.597 246.081 319.002 245.999 317.271 L 243.738 235.393 C 243.645 232.004 246.963 229.153 251.135 229.037 L 306.839 227.499 C 311.012 227.383 314.482 230.048 314.576 233.437 L 316.836 315.315 C 316.85 317.048 316.061 318.689 314.7 319.761 C 313.212 320.973 311.357 321.646 309.438 321.671 L 253.736 323.209 C 252.441 323.252 251.152 323.013 249.959 322.508 Z" fill="#3f3d56" transform="matrix(0.999848, 0.017452, -0.017452, 0.999848, 4.848149, -4.849591)"/>
  <path d="M 289.26 75.443 L 270.36 75.965 C 266.713 76.066 263.629 71.945 263.486 66.781 C 263.344 61.616 266.195 57.332 269.842 57.231 L 288.743 56.709 C 292.39 56.609 295.474 60.729 295.616 65.893 C 295.759 71.058 292.907 75.342 289.26 75.443 Z" fill="#6c63ff" transform="matrix(0.999848, 0.017452, -0.017452, 0.999848, 1.200282, -4.868595)"/>
  <path d="M 375.638 423.821 C 370.948 423.945 367.042 420.249 366.907 415.558 L 366.244 391.568 C 366.072 385.027 373.045 380.752 378.796 383.873 C 381.458 385.318 383.15 388.071 383.238 391.098 L 383.9 415.089 C 384.024 419.78 380.328 423.686 375.638 423.821 Z" fill="#3f3d56" transform="matrix(0.999848, 0.017452, -0.017452, 0.999848, 7.095954, -6.484295)"/>
</svg>